<svg width="176" height="108" viewBox="0 0 176 108" xmlns="http://www.w3.org/2000/svg">
  <rect x="2" y="2" width="172" height="104" rx="8" fill="#1a1a1d" stroke="#3a3a3e" stroke-width="0.5"/>
  <rect x="2" y="2" width="172" height="22" rx="8" fill="#2a2a2e"/>
  <rect x="2" y="16" width="172" height="8" fill="#2a2a2e"/>
  <circle cx="12" cy="13" r="2.5" fill="#ff5f57"/>
  <circle cx="20" cy="13" r="2.5" fill="#febc2e"/>
  <circle cx="28" cy="13" r="2.5" fill="#28c840"/>
  <rect x="38" y="7" width="50" height="13" rx="4" fill="#1a1a1d"/>
  <circle cx="44.5" cy="13.5" r="2" fill="#f4f4f5"/>
  <circle cx="44.5" cy="13.5" r="0.8" fill="#03A9F4"/>
  <rect x="49" y="12" width="30" height="3" rx="1.5" fill="#8b8578"/>
  <rect x="38" y="26" width="120" height="9" rx="4.5" fill="#0d0d0f"/>
  <rect x="43" y="29.5" width="50" height="2.5" rx="1.25" fill="#8b8578"/>
  <circle cx="88" cy="70" r="20" fill="#f4f4f5"/>
  <circle cx="88" cy="70" r="8" fill="#03A9F4"/>
  <circle cx="88" cy="70" r="28" fill="none" stroke="#03A9F4" stroke-width="0.75" opacity="0.4"/>
  <circle cx="88" cy="70" r="36" fill="none" stroke="#03A9F4" stroke-width="0.75" opacity="0.2"/>
</svg>
